<svg width="552" height="91" viewBox="0 0 552 91" fill="none" xmlns="http://www.w3.org/2000/svg">
<path d="M0 85.4255C0 86.3643 0.777855 87.1254 1.73739 87.1254H14.4719C15.4315 87.1254 16.2093 86.3643 16.2093 85.4255V2.55716C16.2093 1.61833 15.4315 0.857252 14.4719 0.857252H1.73739C0.777856 0.857252 0 1.61833 0 2.55716V85.4255Z" fill="white"/>
<path d="M61.774 88.5435C73.9487 88.5435 82.8308 84.4977 89.4117 78.1555C90.13 77.4632 90.04 76.3199 89.2526 75.7036L82.337 70.2903C81.6785 69.7749 80.7392 69.8 80.0886 70.325C74.8228 74.5747 69.4263 76.8441 62.0419 76.8441C52.2866 76.8441 44.5163 71.8998 42.1104 62.9729C41.8365 61.9565 42.6584 61.0086 43.7327 61.0086H92.2112C93.0489 61.0086 93.7454 60.42 93.8059 59.6025C93.875 58.6687 93.9247 57.5665 93.9247 56.9906C93.9247 39.0279 82.538 23.4288 60.0325 23.4288C39.8043 23.4288 25.4705 38.0825 25.4705 55.927C25.4705 75.426 41.2779 88.5435 61.774 88.5435ZM43.5608 51.5546C42.4995 51.5546 41.6814 50.6287 41.9224 49.6173C43.9817 40.9781 50.6604 35.1282 59.8985 35.1282C69.8741 35.1282 75.9033 41.374 77.554 49.6721C77.7522 50.6683 76.9405 51.5546 75.9031 51.5546H43.5608Z" fill="white"/>
<path d="M159.773 87.1254C160.732 87.1254 161.51 86.3643 161.51 85.4255V50.1364C161.51 33.4737 151.329 23.7833 130.431 23.7833C119.691 23.7833 112.327 25.632 105.083 28.372C104.203 28.705 103.771 29.6729 104.104 30.5369L107.313 38.8579C107.652 39.7354 108.652 40.1768 109.555 39.8619C115.372 37.8325 120.922 36.5463 128.154 36.5463C139.407 36.5463 145.569 41.2733 145.569 49.9001C145.569 50.4923 144.99 50.9196 144.406 50.764C139.286 49.4008 133.979 48.482 126.011 48.482C109.533 48.482 97.3428 55.0998 97.3428 68.9264C97.3428 81.6893 109.131 88.4253 122.528 88.4253C131.071 88.4253 137.486 85.9471 142.179 82.3676C143.425 81.4179 145.435 82.2279 145.435 83.7729V85.4255C145.435 86.3643 146.213 87.1254 147.172 87.1254H159.773ZM145.837 64.5539C145.837 72.3535 137.799 77.6714 127.082 77.6714C119.446 77.6714 113.418 74.3624 113.418 68.4537C113.418 62.1904 119.446 58.5269 129.628 58.5269C135.351 58.5269 140.632 59.4059 144.665 60.6312C145.371 60.8456 145.837 61.4929 145.837 62.2158V64.5539Z" fill="white"/>
<path d="M176.369 85.4255C176.369 86.3643 177.146 87.1254 178.106 87.1254H190.84C191.8 87.1254 192.578 86.3643 192.578 85.4255V38.7189C192.578 37.78 193.356 37.019 194.315 37.019H209.327C210.287 37.019 211.065 36.2579 211.065 35.3191V26.9013C211.065 25.9625 210.287 25.2014 209.327 25.2014H194.047C193.088 25.2014 192.31 24.4403 192.31 23.5015V21.7743C192.31 15.2747 195.525 12.3203 201.687 12.3203C204.338 12.3203 206.601 12.6625 208.948 13.2428C210.077 13.5218 211.199 12.7097 211.199 11.5707V3.10805C211.199 2.33819 210.671 1.66146 209.906 1.47903C206.642 0.699977 203.034 0.148193 198.07 0.148193C191.104 0.148193 185.88 1.80265 182.129 5.11157C178.378 8.42049 176.369 13.6202 176.369 20.5926V23.3833C176.369 24.3222 175.591 25.0832 174.631 25.0832H169.131C168.171 25.0832 167.393 25.8443 167.393 26.7831V35.3191C167.393 36.2579 168.171 37.019 169.131 37.019H174.631C175.591 37.019 176.369 37.78 176.369 38.7189V85.4255Z" fill="white"/>
<path d="M291.686 88.3072C306.421 88.3072 317.942 81.8075 317.942 68.69C317.942 57.227 306.287 53.0908 295.972 50.2546C295.57 50.1365 295.035 50.0183 294.633 49.9001C286.863 47.6548 280.031 45.764 280.031 41.5096C280.031 37.6098 283.648 35.01 289.944 35.01C295.421 35.01 302.055 36.9488 308.449 40.1628C309.27 40.5758 310.285 40.3165 310.772 39.548L315.404 32.2259C315.915 31.418 315.652 30.3544 314.799 29.8998C307.544 26.0313 298.595 23.6651 290.346 23.6651C276.28 23.6651 265.161 30.8738 265.161 42.6914C265.161 54.8635 276.816 58.6451 287.265 61.3631C287.667 61.4813 288.069 61.5995 288.471 61.7177C296.24 63.7266 303.072 65.3811 303.072 69.9899C303.072 74.3624 299.053 76.9623 292.087 76.9623C285.295 76.9623 277.557 74.67 270.317 70.1831C269.525 69.6926 268.474 69.8681 267.921 70.6083L262.717 77.5803C262.145 78.3455 262.322 79.4227 263.132 79.9423C271.719 85.4522 282.182 88.3072 291.686 88.3072Z" fill="white"/>
<path d="M390.941 90.1254C399.319 90.1254 405.329 86.9317 409.869 82.423C411.049 81.2515 413.299 82.0096 413.299 83.6542V87.1277C413.299 88.0665 414.077 88.8276 415.037 88.8276H426.592C427.551 88.8276 428.329 88.0665 428.329 87.1277V4.39797C428.329 3.45913 427.551 2.69806 426.592 2.69806H415.037C414.077 2.69806 413.299 3.45913 413.299 4.39797V31.3544C413.299 32.9619 411.152 33.731 409.963 32.6225C405.475 28.4415 399.436 25.2333 390.941 25.2333C375.29 25.2333 360.508 36.9139 360.508 57.5614C360.508 78.4449 375.538 90.1254 390.941 90.1254ZM394.543 77.7369C384.357 77.7369 375.662 69.8319 375.662 57.7974C375.662 45.1729 384.233 37.6218 394.543 37.6218C404.604 37.6218 413.548 45.5269 413.548 57.5614C413.548 69.7139 404.604 77.7369 394.543 77.7369Z" fill="white"/>
<path d="M469.683 90.2434C480.999 90.2434 489.248 86.1842 495.354 79.8255C496.011 79.1421 495.925 78.0673 495.199 77.4553L488.883 72.1323C488.208 71.5629 487.204 71.5905 486.535 72.1669C481.693 76.3372 476.717 78.5628 469.931 78.5628C460.881 78.5628 453.673 73.6214 451.447 64.7001C451.194 63.6868 452.013 62.7528 453.08 62.7528H497.781C498.627 62.7528 499.329 62.1531 499.386 61.3271C499.449 60.3995 499.494 59.3117 499.494 58.7412C499.494 40.8074 488.936 25.2333 468.068 25.2333C449.312 25.2333 436.021 39.8635 436.021 57.6794C436.021 77.147 450.678 90.2434 469.683 90.2434ZM452.92 53.3139C451.866 53.3139 451.05 52.4002 451.273 51.3921C453.179 42.76 459.374 36.9139 467.944 36.9139C477.197 36.9139 482.788 43.1542 484.316 51.4434C484.5 52.4369 483.69 53.3139 482.658 53.3139H452.92Z" fill="white"/>
<path d="M508.005 87.1277C508.005 88.0665 508.783 88.8276 509.742 88.8276H521.297C522.257 88.8276 523.035 88.0665 523.035 87.1277V4.39797C523.035 3.45913 522.257 2.69806 521.297 2.69806H509.742C508.783 2.69806 508.005 3.45913 508.005 4.39797V87.1277Z" fill="white"/>
<path d="M535.473 15.2744C535.473 16.2132 536.251 16.9743 537.21 16.9743H549.883C550.843 16.9743 551.621 16.2132 551.621 15.2744V5.10588C551.621 4.16704 550.843 3.40597 549.883 3.40597H537.21C536.251 3.40597 535.473 4.16705 535.473 5.10588V15.2744ZM536.094 87.1277C536.094 88.0665 536.872 88.8276 537.831 88.8276H549.386C550.346 88.8276 551.124 88.0665 551.124 87.1277V28.2311C551.124 27.2922 550.346 26.5312 549.386 26.5312H537.831C536.872 26.5312 536.094 27.2922 536.094 28.2311V87.1277Z" fill="white"/>
</svg>
