<svg width="190" height="43" viewBox="0 0 190 43" fill="none" xmlns="http://www.w3.org/2000/svg">
<path d="M0 40.7904C0 41.1137 0.267924 41.3759 0.598425 41.3759H4.98471C5.31521 41.3759 5.58313 41.1137 5.58313 40.7904V12.2472C5.58313 11.9239 5.31521 11.6617 4.98471 11.6617H0.598425C0.267924 11.6617 0 11.9239 0 12.2472V40.7904Z" fill="#151515"/>
<path d="M21.2774 41.8643C25.4709 41.8643 28.5302 40.4708 30.7969 38.2863C31.0443 38.0478 31.0133 37.654 30.7421 37.4418L28.3601 35.5772C28.1333 35.3997 27.8098 35.4083 27.5857 35.5892C25.7719 37.0529 23.9132 37.8346 21.3697 37.8346C18.0096 37.8346 15.3332 36.1316 14.5045 33.0568C14.4101 32.7067 14.6933 32.3802 15.0633 32.3802H31.7612C32.0497 32.3802 32.2896 32.1775 32.3105 31.8959C32.3343 31.5743 32.3514 31.1946 32.3514 30.9963C32.3514 24.8092 28.4294 19.4362 20.6776 19.4362C13.7102 19.4362 8.77303 24.4836 8.77303 30.6299C8.77303 37.3461 14.2177 41.8643 21.2774 41.8643ZM15.0041 29.1239C14.6385 29.1239 14.3567 28.805 14.4397 28.4566C15.149 25.4809 17.4494 23.466 20.6314 23.466C24.0674 23.466 26.1441 25.6173 26.7127 28.4755C26.7809 28.8186 26.5013 29.1239 26.144 29.1239H15.0041Z" fill="#151515"/>
<path d="M55.0321 41.3759C55.3626 41.3759 55.6306 41.1137 55.6306 40.7904V28.6354C55.6306 22.8961 52.1238 19.5583 44.9257 19.5583C41.2263 19.5583 38.6899 20.1951 36.1949 21.1389C35.8917 21.2536 35.7429 21.587 35.8576 21.8845L36.963 24.7506C37.0795 25.0529 37.4241 25.2049 37.7351 25.0964C39.7388 24.3975 41.6503 23.9544 44.1413 23.9544C48.0172 23.9544 50.1397 25.5826 50.1397 28.554C50.1397 28.758 49.9402 28.9051 49.739 28.8516C47.9757 28.382 46.1478 28.0656 43.403 28.0656C37.7276 28.0656 33.5287 30.345 33.5287 35.1074C33.5287 39.5035 37.5892 41.8236 42.2033 41.8236C45.1459 41.8236 47.3555 40.97 48.9722 39.7371C49.4012 39.41 50.0936 39.689 50.0936 40.2211V40.7904C50.0936 41.1137 50.3615 41.3759 50.692 41.3759H55.0321ZM50.232 33.6013C50.232 36.2878 47.4635 38.1195 43.7722 38.1195C41.1421 38.1195 39.0657 36.9798 39.0657 34.9446C39.0657 32.7873 41.1421 31.5254 44.6488 31.5254C46.6204 31.5254 48.4394 31.8282 49.8285 32.2502C50.0715 32.3241 50.232 32.547 50.232 32.796V33.6013Z" fill="#151515"/>
<path d="M60.7483 40.7904C60.7483 41.1137 61.0162 41.3759 61.3467 41.3759H65.733C66.0635 41.3759 66.3314 41.1137 66.3314 40.7904V24.7027C66.3314 24.3794 66.5994 24.1172 66.9299 24.1172H72.1006C72.4311 24.1172 72.699 23.8551 72.699 23.5317V20.6323C72.699 20.3089 72.4311 20.0468 72.1006 20.0468H66.8376C66.5071 20.0468 66.2392 19.7847 66.2392 19.4613V18.8664C66.2392 16.6276 67.3466 15.61 69.4691 15.61C70.3821 15.61 71.1615 15.7279 71.97 15.9278C72.3587 16.0239 72.7451 15.7442 72.7451 15.3518V12.437C72.7451 12.1718 72.5633 11.9387 72.3 11.8759C71.1756 11.6075 69.9328 11.4175 68.2233 11.4175C65.8239 11.4175 64.0244 11.9873 62.7324 13.1271C61.4404 14.2668 60.7483 16.0578 60.7483 18.4593V19.4206C60.7483 19.7439 60.4804 20.0061 60.1499 20.0061H58.2552C57.9247 20.0061 57.6568 20.2682 57.6568 20.5916V23.5317C57.6568 23.8551 57.9247 24.1172 58.2552 24.1172H60.1499C60.4804 24.1172 60.7483 24.3794 60.7483 24.7028V40.7904Z" fill="#151515"/>
<path d="M100.468 41.7829C105.544 41.7829 109.512 39.5442 109.512 35.026C109.512 31.0777 105.497 29.653 101.945 28.6761C101.806 28.6354 101.622 28.5947 101.483 28.554C98.807 27.7806 96.4537 27.1294 96.4537 25.664C96.4537 24.3208 97.6996 23.4253 99.8682 23.4253C101.755 23.4253 104.04 24.0931 106.242 25.2001C106.525 25.3424 106.875 25.253 107.042 24.9883L108.638 22.4663C108.814 22.188 108.723 21.8217 108.429 21.6651C105.93 20.3326 102.848 19.5176 100.007 19.5176C95.1618 19.5176 91.332 22.0006 91.332 26.071C91.332 30.2636 95.3463 31.5661 98.9454 32.5023C99.0838 32.543 99.2222 32.5837 99.3607 32.6244C102.037 33.3164 104.39 33.8863 104.39 35.4737C104.39 36.9798 103.006 37.8753 100.606 37.8753C98.2668 37.8753 95.6017 37.0857 93.1077 35.5403C92.8351 35.3713 92.473 35.4318 92.2827 35.6867L90.49 38.0882C90.2932 38.3517 90.3542 38.7227 90.6331 38.9017C93.5908 40.7996 97.1946 41.7829 100.468 41.7829Z" fill="#151515"/>
<path d="M134.655 42.4092C137.541 42.4092 139.611 41.3092 141.175 39.7562C141.581 39.3527 142.357 39.6138 142.357 40.1802V41.3767C142.357 41.7 142.625 41.9622 142.955 41.9622H146.935C147.266 41.9622 147.534 41.7 147.534 41.3767V12.8813C147.534 12.5579 147.266 12.2958 146.935 12.2958H142.955C142.625 12.2958 142.357 12.5579 142.357 12.8813V22.1661C142.357 22.7198 141.617 22.9847 141.207 22.6029C139.662 21.1628 137.582 20.0578 134.655 20.0578C129.265 20.0578 124.173 24.081 124.173 31.1929C124.173 38.3859 129.35 42.4092 134.655 42.4092ZM135.896 38.1421C132.388 38.1421 129.393 35.4193 129.393 31.2741C129.393 26.9258 132.345 24.3249 135.896 24.3249C139.362 24.3249 142.442 27.0477 142.442 31.1929C142.442 35.3787 139.362 38.1421 135.896 38.1421Z" fill="#151515"/>
<path d="M161.777 42.4498C165.675 42.4498 168.516 41.0517 170.62 38.8615C170.846 38.6261 170.816 38.2559 170.566 38.0451L168.391 36.2116C168.158 36.0155 167.812 36.025 167.582 36.2236C165.914 37.66 164.2 38.4266 161.863 38.4266C158.746 38.4266 156.263 36.7246 155.496 33.6517C155.409 33.3027 155.691 32.981 156.059 32.981H171.456C171.747 32.981 171.989 32.7744 172.008 32.4899C172.03 32.1704 172.046 31.7958 172.046 31.5992C172.046 25.4221 168.409 20.0578 161.221 20.0578C154.761 20.0578 150.183 25.097 150.183 31.2335C150.183 37.9389 155.231 42.4498 161.777 42.4498ZM156.004 29.7299C155.641 29.7299 155.36 29.4151 155.436 29.0679C156.093 26.0947 158.227 24.081 161.178 24.081C164.365 24.081 166.291 26.2304 166.818 29.0856C166.881 29.4278 166.602 29.7299 166.246 29.7299H156.004Z" fill="#151515"/>
<path d="M174.977 41.3767C174.977 41.7 175.245 41.9622 175.575 41.9622H179.555C179.886 41.9622 180.154 41.7 180.154 41.3767V12.8813C180.154 12.5579 179.886 12.2958 179.555 12.2958H175.575C175.245 12.2958 174.977 12.5579 174.977 12.8813V41.3767Z" fill="#151515"/>
<path d="M184.438 16.6275C184.438 16.9509 184.706 17.2131 185.036 17.2131H189.402C189.732 17.2131 190 16.9509 190 16.6275V13.1251C190 12.8017 189.732 12.5396 189.402 12.5396H185.036C184.706 12.5396 184.438 12.8017 184.438 13.1251V16.6275ZM184.652 41.3767C184.652 41.7 184.92 41.9622 185.25 41.9622H189.23C189.561 41.9622 189.829 41.7 189.829 41.3767V21.0903C189.829 20.767 189.561 20.5048 189.23 20.5048H185.25C184.92 20.5048 184.652 20.767 184.652 21.0903V41.3767Z" fill="#151515"/>
<g clip-path="url(#clip0)">
<path d="M103.427 0.777046C103.27 0.42938 102.956 0.216399 102.527 0.265691C102.156 0.307601 93.3938 1.35749 90.0894 7.17351C88.8858 9.29114 88.4605 11.9431 88.8242 15.0546L94.0683 21.3719C94.1155 21.3675 94.1631 21.3595 94.2101 21.3473C97.4494 20.4969 101.753 18.7052 103.86 14.9971C107.164 9.18284 103.582 1.11802 103.427 0.777046Z" fill="#70DA40"/>
<path d="M103.86 14.9971C107.164 9.18288 103.582 1.11806 103.427 0.777082C103.351 0.609101 103.238 0.472927 103.093 0.382088L92.347 19.2985L94.0682 21.372C94.1155 21.3675 94.163 21.3596 94.21 21.3473C97.4493 20.4969 101.753 18.7053 103.86 14.9971Z" fill="#56C225"/>
<path d="M99.5877 6.55303C99.1662 6.3141 98.6277 6.4607 98.3882 6.88378L95.0911 12.6869L94.3333 9.93625C94.2043 9.46672 93.7172 9.18818 93.2516 9.32191C92.783 9.45085 92.5078 9.93508 92.6375 10.4036L93.8617 14.8505L92.1986 17.7777C91.9591 18.2001 92.1064 18.7367 92.5294 18.9774C92.6918 19.07 92.8721 19.1047 93.0457 19.0883C93.322 19.0623 93.5819 18.9065 93.729 18.6466L95.3916 15.7203L99.8388 14.4956C100.307 14.3669 100.583 13.8826 100.453 13.4141C100.324 12.9448 99.8385 12.6668 99.3712 12.8L96.6205 13.5573L99.9184 7.75269C100.158 7.33027 100.011 6.79364 99.5877 6.55303Z" fill="#56C225"/>
<path d="M92.5296 18.9775C92.6918 19.0699 92.8721 19.1046 93.0457 19.0883C93.3219 19.0622 93.5818 18.9064 93.729 18.6467L95.3918 15.7205L99.8388 14.4957C100.307 14.367 100.583 13.8825 100.453 13.4142C100.324 12.9446 99.8388 12.6669 99.3714 12.7998L96.6205 13.5574L99.9184 7.75283C100.158 7.33041 100.011 6.79378 99.5876 6.55317L92.5296 18.9775Z" fill="#49A520"/>
<path d="M93.7723 29.9705L95.121 30.1067C95.3087 29.0993 95.7466 26.436 95.472 23.5276C95.2437 21.11 94.5194 18.4915 92.7693 16.4295C88.4353 11.3416 79.6365 11.9424 79.2685 11.9772C78.9038 12.047 78.5541 12.2745 78.4663 12.6541C78.3942 13.0144 76.3768 21.6011 80.7122 26.7066C84.5294 31.1894 91.8417 31.3179 93.7612 31.2428L93.7723 29.9705Z" fill="#90E36A"/>
<path d="M78.7945 12.1771C78.6353 12.2922 78.5131 12.4511 78.4662 12.6541C78.3941 13.0145 76.3767 21.6011 80.7121 26.7066C84.5292 31.1895 91.8416 31.3179 93.7611 31.2428L93.7719 29.9971L78.7945 12.1771Z" fill="#70DA40"/>
<path d="M95.1211 30.1067C95.0726 30.3412 95.035 30.5038 95.0208 30.5406C94.9311 30.9026 94.6214 31.1792 94.2359 31.2156C94.2359 31.2156 94.2359 31.2156 94.2186 31.2173C94.1834 31.2206 94.0258 31.2355 93.7613 31.2427L89.1611 25.7675L84.5649 25.3883C84.0852 25.363 83.7093 24.9388 83.7523 24.4574C83.7936 23.9587 84.2193 23.6002 84.7007 23.6431L87.5501 23.8691L83.2163 18.781C82.8998 18.4221 82.9534 17.869 83.3125 17.5523C83.6889 17.2339 84.2403 17.2702 84.5587 17.6466L88.8925 22.7347L89.1185 19.8852C89.1614 19.4038 89.5697 19.0472 90.0684 19.0885C90.5482 19.1138 90.9064 19.5396 90.8635 20.0208L90.5035 24.6331L95.1211 30.1067Z" fill="#70DA40"/>
<path d="M83.3125 17.5524C82.9534 17.8691 82.8998 18.4222 83.2163 18.781L87.55 23.869L84.7007 23.6432C84.2193 23.6002 83.7935 23.9587 83.7522 24.4575C83.7093 24.9389 84.0851 25.3628 84.5649 25.3882L89.1611 25.7673L93.7613 31.2428C94.0258 31.2355 94.1836 31.2206 94.2185 31.2173L94.2359 31.2157C94.3951 31.2007 94.5407 31.1441 94.664 31.0581L83.3125 17.5524Z" fill="#56C225"/>
</g>
<defs>
<clipPath id="clip0">
<rect width="30.0338" height="30.0338" fill="white" transform="translate(75.4368 2.82324) rotate(-5.39384)"/>
</clipPath>
</defs>
</svg>
