<svg width="24" height="24" viewBox="0 0 24 24" fill="none" xmlns="http://www.w3.org/2000/svg">
<g clip-path="url(#clip0)">
<path d="M19.957 19.0459L18.7803 22.2225C18.6961 22.45 18.5288 22.637 18.3121 22.746C18.0954 22.855 17.8455 22.8777 17.6127 22.8095C17.2101 22.6911 16.8841 22.5866 16.6362 22.4948C8.69746 19.554 4.64632 10.7354 7.58712 2.7967C7.67897 2.54875 7.81125 2.23303 7.98452 1.85077C8.08449 1.62979 8.26456 1.45494 8.48839 1.36153C8.71222 1.26811 8.96316 1.26307 9.19056 1.34743L12.3671 2.52414C12.4786 2.56531 12.5708 2.64644 12.6258 2.75177C12.6808 2.85711 12.6947 2.97913 12.6647 3.09413C12.6089 3.3084 12.5668 3.47979 12.5385 3.61131C12.2555 4.92339 12.1725 6.27071 12.2923 7.6076C12.3111 7.81889 12.1758 8.01296 11.9715 8.06805L9.51975 8.73516C9.68195 11.9362 11.0676 14.9526 13.3905 17.161L15.4907 15.7385C15.5766 15.6803 15.6801 15.6542 15.7832 15.6646C15.8863 15.675 15.9826 15.7212 16.0551 15.7953C16.9916 16.7561 18.0678 17.5698 19.2475 18.2089C19.3657 18.2732 19.5228 18.3538 19.7203 18.4495C19.8268 18.5018 19.91 18.5918 19.9539 18.7021C19.9979 18.8124 19.9993 18.935 19.9579 19.0462L19.957 19.0459Z" fill="black"/>
</g>
<defs>
<clipPath id="clip0">
<rect width="24" height="24" fill="white"/>
</clipPath>
</defs>
</svg>
